<svg xmlns="http://www.w3.org/2000/svg" viewBox="0 0 430 96" role="img" aria-labelledby="title desc">
  <title id="title">BAS Baby Architects Studio</title>
  <desc id="desc">Gold BAS monogram with the studio name</desc>
  <defs>
    <linearGradient id="gold" x1="0" y1="0" x2="1" y2="1">
      <stop offset="0" stop-color="#ffd978"/>
      <stop offset="0.5" stop-color="#f0a830"/>
      <stop offset="1" stop-color="#a96c11"/>
    </linearGradient>
  </defs>
  <g fill="none" stroke="url(#gold)" stroke-width="3">
    <path d="M15 77V18h25c14 0 23 7 23 17 0 7-4 13-11 16 9 2 15 9 15 20 0 13-10 21-27 21H15zm15-35h10c7 0 11-3 11-9 0-5-4-8-11-8H30v17zm0 28h12c8 0 12-4 12-10s-4-10-12-10H30v20z"/>
    <path d="M78 77l24-59h14l24 59h-16l-5-14H98l-5 14H78zm25-27h12l-6-17-6 17z"/>
    <path d="M151 61c8 6 16 9 24 9 7 0 11-3 11-7 0-5-4-7-14-10-14-4-22-10-22-21 0-12 10-21 27-21 10 0 19 3 27 9l-8 11c-7-5-13-7-19-7-7 0-11 2-11 7 0 4 4 6 14 9 15 5 23 11 23 22 0 13-11 22-28 22-12 0-23-4-32-11l8-12z"/>
  </g>
  <path fill="url(#gold)" d="M225 18h1v59h-1z"/>
  <g fill="#f4f1e8" font-family="Arial, Helvetica, sans-serif">
    <text x="246" y="44" font-size="24" font-weight="600" letter-spacing="5">BABY ARCHITECTS</text>
    <text x="247" y="68" fill="#f0a830" font-size="13" letter-spacing="8">STUDIO</text>
  </g>
</svg>
